<svg xmlns="http://www.w3.org/2000/svg" width="1.846" height="13" viewBox="0 0 1.846 13">
  <g id="_7122423_vertical_3_dots_dots_icon" data-name="7122423_vertical_3 dots_dots_icon" transform="translate(-8 -2)">
    <path id="Path_16" data-name="Path 16" d="M8.923,3.907A.939.939,0,0,1,8,2.954a.923.923,0,1,1,1.846,0A.939.939,0,0,1,8.923,3.907Z" fill="#152238"/>
    <path id="Path_17" data-name="Path 17" d="M8.923,9.907a.954.954,0,1,1,.923-.954A.939.939,0,0,1,8.923,9.907Z" transform="translate(0 -0.454)" fill="#152238"/>
    <path id="Path_18" data-name="Path 18" d="M8.923,15.907a.954.954,0,1,1,.923-.954A.939.939,0,0,1,8.923,15.907Z" transform="translate(0 -0.907)" fill="#152238"/>
  </g>
</svg>
