<svg xmlns="http://www.w3.org/2000/svg" width="24.066" height="24.018" viewBox="0 0 24.066 24.018">
  <g id="Account" transform="translate(0.5 0.503)">
    <path id="Path_3" data-name="Path 3" d="M22.857,20.175A11.5,11.5,0,0,0,16.925,2.523a11.659,11.659,0,0,0-5.168-.388,11.475,11.475,0,0,0-1.7.388h0a11.5,11.5,0,1,0,12.8,17.653h0ZM10.364,3.235c.123-.037.248-.068.373-.1s.247-.069.372-.1c.1-.023.208-.039.312-.059.163-.032.325-.066.489-.09.025,0,.05,0,.075-.008a10.935,10.935,0,0,1,3.02,0l.071.008c.166.024.33.059.494.091.1.02.2.035.306.058.127.028.252.066.377.1s.247.062.369.1a4.6,4.6,0,1,1-6.257,0Zm-1.43.552a5.366,5.366,0,1,0,9.116,0,10.729,10.729,0,0,1,4.582,15.336,9.961,9.961,0,0,0-18.281,0A10.729,10.729,0,0,1,8.934,3.787ZM12.852,24.22c-.073,0-.145-.014-.217-.019-.139-.011-.279-.021-.418-.038-.085-.01-.168-.025-.252-.038-.125-.018-.25-.035-.374-.057-.09-.016-.179-.038-.269-.056-.117-.024-.234-.047-.349-.075-.092-.022-.182-.049-.273-.074-.112-.03-.224-.059-.334-.093-.092-.028-.183-.061-.275-.092-.107-.036-.215-.07-.32-.109s-.182-.073-.273-.109-.207-.082-.309-.126-.179-.084-.268-.126-.2-.093-.3-.143-.174-.094-.261-.141-.194-.1-.289-.16-.169-.1-.253-.156-.188-.116-.279-.177-.163-.114-.244-.171-.181-.127-.269-.193-.156-.123-.234-.185-.174-.138-.258-.21-.149-.132-.223-.2-.166-.148-.246-.225-.142-.141-.213-.213-.156-.158-.232-.24-.134-.15-.2-.226-.147-.168-.218-.254-.126-.159-.189-.24q-.072-.093-.143-.189a9.2,9.2,0,0,1,17.244,0q-.07.094-.142.187c-.063.081-.126.163-.191.243s-.142.167-.214.25-.135.155-.2.231-.151.157-.227.235-.143.147-.217.217-.16.147-.24.22-.151.137-.229.2-.167.137-.252.2-.158.128-.24.19-.175.127-.263.189-.165.119-.25.175-.182.116-.274.174-.171.108-.258.159-.189.105-.284.157-.176.1-.266.144-.2.094-.294.141-.181.088-.273.128-.2.084-.305.125-.183.076-.276.11-.213.073-.319.109-.183.064-.276.092c-.11.034-.221.062-.332.092-.092.025-.183.052-.275.075-.115.028-.231.05-.347.074-.09.019-.18.04-.271.057-.124.022-.249.039-.374.057-.084.012-.168.027-.252.038-.138.017-.278.027-.418.038-.073.006-.145.015-.217.019q-.318.019-.64.02T12.852,24.22Z" transform="translate(-1.99 -2.006)" fill="none" stroke="#707070" stroke-width="1"/>
  </g>
</svg>
