<svg xmlns="http://www.w3.org/2000/svg" width="15" height="15" viewBox="0 0 15 15">
  <g id="Group_6" data-name="Group 6" transform="translate(-361.263 -7)">
    <path id="Path_2" data-name="Path 2" d="M13.7,20H10.2a1.027,1.027,0,0,0-.9,1.5A3.282,3.282,0,0,0,12,23a2.984,2.984,0,0,0,2.6-1.5A1,1,0,0,0,13.7,20Z" transform="translate(356.81 -1)" fill="#152238"/>
    <path id="Path_3" data-name="Path 3" d="M16.855,11.512l-.3-.334a7.32,7.32,0,0,1-1.8-4.813V5.9A5,5,0,0,0,10.1,1.083C6.945.749,4.242,2.955,4.242,5.7v.669a7.32,7.32,0,0,1-1.8,4.813l-.3.334a.512.512,0,0,0-.15.535,1.588,1.588,0,0,0,1.5,1H15.5a1.423,1.423,0,0,0,1.426-1A.643.643,0,0,0,16.855,11.512Z" transform="translate(359.302 5.95)" fill="#152238"/>
  </g>
</svg>
