<svg id="aami4-19-256" xmlns="http://www.w3.org/2000/svg" width="23" height="23" viewBox="0 0 23 23">
  <path id="Path_1" data-name="Path 1" d="M54.038-211.782a11.755,11.755,0,0,0-9.373,8.389,13.95,13.95,0,0,0,0,6.124,11.755,11.755,0,0,0,8.1,8.087,13.991,13.991,0,0,0,6.13,0,11.755,11.755,0,0,0,8.095-8.087,13.949,13.949,0,0,0,0-6.124,11.77,11.77,0,0,0-8.026-8.073A18.313,18.313,0,0,0,54.038-211.782Zm4.192,1.236a12.268,12.268,0,0,1,4.247,2.087,10.561,10.561,0,0,1,2.694,12.934,11.025,11.025,0,0,1-4.948,4.709,9.454,9.454,0,0,1-4.4.934,9.222,9.222,0,0,1-4.6-1.043,10.088,10.088,0,0,1-4.81-4.805,9.462,9.462,0,0,1-1.058-4.6,9.462,9.462,0,0,1,1.058-4.6A10.447,10.447,0,0,1,58.23-210.546Z" transform="translate(-44.325 211.842)" fill="#707070"/>
  <path id="Path_2" data-name="Path 2" d="M99.456-179.84a1.448,1.448,0,0,0-.172.8c0,.588-.029.641-.387.708a4.97,4.97,0,0,0-2.609,1.082c-1.247,1.042-1.448,2.472-.5,3.514a4.807,4.807,0,0,0,2.695,1.176l.8.08v3.942l-.6-.134a4.791,4.791,0,0,1-2.308-1.1c-.616-.548-.7-.561-1.018-.267-.272.254-.272.241-.029.695a5.691,5.691,0,0,0,3.626,1.764c.272,0,.315.08.358.615.086,1.149,1,1.176,1.089.04l.043-.588.717-.16a3.929,3.929,0,0,0,3.139-2.379c.5-1.684-.6-2.94-2.924-3.3l-.946-.147v-3.875l.6.094a3.535,3.535,0,0,1,2.193,1.069c.416.508.788.6,1.075.281.616-.695-1.562-2.338-3.082-2.338-.659,0-.788-.134-.788-.788s-.186-.949-.573-.949A.657.657,0,0,0,99.456-179.84Zm-.172,4.463v1.951l-.459-.094c-1.634-.307-2.551-.9-2.551-1.63s.846-1.617,1.949-1.978S99.284-177.568,99.284-175.376Zm3.039,3.341a1.369,1.369,0,0,1,.645,2.2,4,4,0,0,1-2.207,1.189c-.33,0-.33,0-.33-1.884v-1.9l.7.08A3.986,3.986,0,0,1,102.323-172.036Z" transform="translate(-88.353 184.564)" fill="#707070"/>
</svg>
