<svg xmlns="http://www.w3.org/2000/svg" width="15" height="15" viewBox="0 0 15 15">
  <g id="next_page1" data-name="next page1" transform="translate(-21.502 234.616)">
    <path id="Path_76" data-name="Path 76" d="M28.14-234.573a7.573,7.573,0,0,0-5.934,4.312,7.439,7.439,0,0,0,1.57,8.505,7.429,7.429,0,0,0,8.355,1.435,7.368,7.368,0,0,0,3.66-3.651,7.483,7.483,0,0,0-4-10.1A8.027,8.027,0,0,0,28.14-234.573Zm1.668,5.7,1.76,1.759-1.76,1.759-1.76,1.759-.528-.528-.528-.528,1.232-1.231,1.232-1.231-1.225-1.224c-.859-.858-1.2-1.252-1.168-1.316a9.777,9.777,0,0,1,.95-.978C28.034-230.633,28.844-229.845,29.808-228.874Z" transform="translate(0 0)" fill="#164894"/>
  </g>
</svg>
