<svg xmlns="http://www.w3.org/2000/svg" width="18.7" height="24.6" viewBox="0 0 18.7 24.6">
  <g id="_5803966_checklist_clipboard_task_todo_icon" data-name="5803966_checklist_clipboard_task_todo_icon" transform="translate(0.5 0.5)">
    <path id="Path_19" data-name="Path 19" d="M33.355,1.785a1.182,1.182,0,0,0-.8-.312h-5.9a1.877,1.877,0,0,0-.457-.9A1.833,1.833,0,0,0,24.839,0h0a1.825,1.825,0,0,0-1.822,1.475H17.106A1.106,1.106,0,0,0,16,2.58V22.492A1.106,1.106,0,0,0,17.106,23.6H32.594A1.1,1.1,0,0,0,33.7,22.492V2.58a1.079,1.079,0,0,0-.345-.795Zm-10.006.426a.369.369,0,0,0,.369-.369A1.09,1.09,0,0,1,24.839.736h0a1.084,1.084,0,0,1,.822.343,1.141,1.141,0,0,1,.295.763.369.369,0,0,0,.369.369h2.212V4.424H21.162V2.211Zm9.613,20.281a.369.369,0,0,1-.369.369H17.106a.369.369,0,0,1-.369-.369V2.58a.369.369,0,0,1,.369-.369h3.319V4.793a.369.369,0,0,0,.369.369h8.112a.369.369,0,0,0,.369-.369V2.211h3.276a.439.439,0,0,1,.3.112.341.341,0,0,1,.111.256Z" transform="translate(-16 0.001)" stroke="#000" stroke-width="1"/>
    <path id="Path_20" data-name="Path 20" d="M40.906,20h-.737a.369.369,0,0,0,0,.737h.369V36.962h-11.8V20.737h.369a.369.369,0,1,0,0-.737h-.737a.369.369,0,0,0-.369.369V37.331a.369.369,0,0,0,.369.369H40.906a.369.369,0,0,0,.369-.369V20.369A.369.369,0,0,0,40.906,20Z" transform="translate(-25.788 -16.312)" fill="#00b9d9" stroke="#00b9d9" stroke-width="1"/>
    <path id="Path_21" data-name="Path 21" d="M64.369,44.737h4.056a.369.369,0,1,0,0-.737H64.369a.369.369,0,1,0,0,.737Z" transform="translate(-55.15 -35.887)" fill="#00b9d9"/>
    <path id="Path_22" data-name="Path 22" d="M64.369,56.737h2.95a.369.369,0,1,0,0-.737h-2.95a.369.369,0,1,0,0,.737Z" transform="translate(-55.15 -45.675)" fill="#00b9d9"/>
    <path id="Path_23" data-name="Path 23" d="M39.532,46.625a.369.369,0,0,0,.26.107h.017a.369.369,0,0,0,.277-.131l1.941-2.336a.369.369,0,1,0-.564-.474l-1.694,2.028-1.082-1.08a.369.369,0,0,0-.52.522Z" transform="translate(-34.001 -35.599)" fill="#00b9d9"/>
    <path id="Path_24" data-name="Path 24" d="M68.425,72.737H64.369a.369.369,0,1,1,0-.737h4.056a.369.369,0,0,1,0,.737Z" transform="translate(-55.15 -58.725)" fill="#00b9d9"/>
    <path id="Path_25" data-name="Path 25" d="M67.319,84.737h-2.95a.369.369,0,1,1,0-.737h2.95a.369.369,0,1,1,0,.737Z" transform="translate(-55.15 -68.512)" fill="#00b9d9"/>
    <path id="Path_26" data-name="Path 26" d="M39.678,74.782a.369.369,0,0,1-.26-.107l-1.366-1.366a.369.369,0,1,1,.52-.522l1.082,1.08,1.694-2.028a.369.369,0,0,1,.564.476l-1.941,2.336a.369.369,0,0,1-.267.131Z" transform="translate(-33.887 -58.487)" fill="#00b9d9"/>
  </g>
</svg>
